<?xml version="1.0" encoding="UTF-8"?>
<svg id="_レイヤー_2" data-name="レイヤー 2" xmlns="http://www.w3.org/2000/svg" viewBox="0 0 283.46 337.48">
  <defs>
    <style>
      .cls-1 {
        fill: #3e3a39;
        stroke-width: 0px;
      }
    </style>
  </defs>
  <g id="_レイヤー_1-2" data-name="レイヤー 1">
    <g>
      <g>
        <polygon class="cls-1" points="15.53 312.45 12.25 312.45 2.49 321.61 2.49 312.45 0 312.45 0 336.87 2.49 336.87 2.49 325.49 13.19 336.87 16.44 336.87 3.8 323.4 15.53 312.45"/>
        <path class="cls-1" d="m35.76,311.83c-2.28,0-4.4.57-6.36,1.7-1.96,1.13-3.51,2.7-4.64,4.71-1.14,2-1.7,4.18-1.7,6.52,0,3.52,1.25,6.52,3.74,9,2.49,2.48,5.55,3.72,9.17,3.72s6.61-1.24,9.1-3.74c2.49-2.49,3.73-5.52,3.73-9.1s-1.25-6.65-3.74-9.11c-2.49-2.47-5.59-3.7-9.29-3.7Zm9.14,18.12c-.9,1.59-2.16,2.85-3.77,3.77-1.61.92-3.37,1.38-5.26,1.38-2.84,0-5.26-1-7.27-3-2.01-2-3.02-4.45-3.02-7.35,0-1.96.45-3.74,1.36-5.33.91-1.59,2.17-2.86,3.79-3.8,1.62-.94,3.33-1.41,5.14-1.41s3.58.47,5.22,1.41c1.64.94,2.91,2.2,3.82,3.76.9,1.57,1.36,3.32,1.36,5.26s-.45,3.72-1.36,5.32Z"/>
        <polygon class="cls-1" points="76.73 312.45 73.45 312.45 63.69 321.61 63.69 312.45 61.2 312.45 61.2 336.87 63.69 336.87 63.69 325.49 74.39 336.87 77.64 336.87 65 323.4 76.73 312.45"/>
        <path class="cls-1" d="m97.64,311.83c-2.28,0-4.4.57-6.36,1.7-1.96,1.13-3.51,2.7-4.64,4.71-1.14,2-1.7,4.18-1.7,6.52,0,3.52,1.25,6.52,3.74,9,2.49,2.48,5.55,3.72,9.17,3.72s6.61-1.24,9.1-3.74c2.49-2.49,3.73-5.52,3.73-9.1s-1.25-6.65-3.74-9.11c-2.49-2.47-5.59-3.7-9.28-3.7Zm9.14,18.12c-.9,1.59-2.16,2.85-3.77,3.77-1.61.92-3.37,1.38-5.26,1.38-2.84,0-5.26-1-7.27-3-2.01-2-3.02-4.45-3.02-7.35,0-1.96.45-3.74,1.36-5.33.91-1.59,2.17-2.86,3.79-3.8,1.62-.94,3.33-1.41,5.14-1.41s3.58.47,5.22,1.41c1.64.94,2.91,2.2,3.82,3.76.9,1.57,1.36,3.32,1.36,5.26s-.45,3.72-1.36,5.32Z"/>
        <polygon class="cls-1" points="150.69 322.69 138.26 322.69 138.26 312.45 135.82 312.45 135.82 336.87 138.26 336.87 138.26 325.08 150.69 325.08 150.69 336.87 153.13 336.87 153.13 312.45 150.69 312.45 150.69 322.69"/>
        <path class="cls-1" d="m177.48,311.83c-2.28,0-4.4.57-6.36,1.7-1.96,1.13-3.51,2.7-4.64,4.71-1.14,2-1.7,4.18-1.7,6.52,0,3.52,1.25,6.52,3.74,9,2.49,2.48,5.55,3.72,9.17,3.72s6.61-1.24,9.09-3.74c2.49-2.49,3.73-5.52,3.73-9.1s-1.25-6.65-3.74-9.11c-2.49-2.47-5.59-3.7-9.29-3.7Zm9.14,18.12c-.9,1.59-2.16,2.85-3.77,3.77-1.61.92-3.37,1.38-5.26,1.38-2.84,0-5.26-1-7.27-3-2.01-2-3.02-4.45-3.02-7.35,0-1.96.45-3.74,1.36-5.33.91-1.59,2.17-2.86,3.79-3.8,1.62-.94,3.33-1.41,5.14-1.41s3.58.47,5.22,1.41c1.64.94,2.91,2.2,3.82,3.76.9,1.57,1.36,3.32,1.36,5.26s-.45,3.72-1.36,5.32Z"/>
        <polygon class="cls-1" points="199.03 314.84 204.47 314.84 204.47 336.87 206.96 336.87 206.96 314.84 212.41 314.84 212.41 312.45 199.03 312.45 199.03 314.84"/>
        <polygon class="cls-1" points="223.39 336.87 237.28 336.87 237.28 334.48 225.83 334.48 225.83 324.88 237.28 324.88 237.28 322.49 225.83 322.49 225.83 314.84 237.38 314.84 237.38 312.45 223.39 312.45 223.39 336.87"/>
        <polygon class="cls-1" points="251.15 312.45 248.71 312.45 248.71 336.87 260.54 336.87 260.54 334.51 251.15 334.51 251.15 312.45"/>
        <path class="cls-1" d="m277.94,323.07c-1.78-1.32-2.83-2.13-3.15-2.44-.59-.59-.99-1.13-1.21-1.63-.22-.5-.33-1.01-.33-1.54,0-.87.31-1.61.94-2.21.63-.6,1.43-.9,2.41-.9.76,0,1.47.19,2.12.58.65.39,1.43,1.19,2.35,2.41l1.99-1.51c-1.12-1.53-2.18-2.58-3.18-3.15-1-.57-2.08-.85-3.23-.85-1.08,0-2.09.25-3.01.76-.92.5-1.64,1.19-2.15,2.07-.51.87-.76,1.84-.76,2.91,0,1.34.43,2.58,1.3,3.74.5.69,1.76,1.8,3.8,3.34,2.03,1.53,3.42,2.83,4.18,3.92.55.79.83,1.59.83,2.41,0,.72-.19,1.4-.56,2.04-.38.64-.92,1.15-1.64,1.54-.72.38-1.49.57-2.31.57-1.91,0-3.6-1.34-5.06-4.03l-2.08,1.24c1.02,1.86,2.13,3.18,3.34,3.98,1.21.79,2.55,1.19,4.03,1.19,1.93,0,3.56-.65,4.91-1.96,1.34-1.31,2.02-2.84,2.02-4.62,0-1.23-.39-2.45-1.18-3.67-.79-1.22-2.24-2.61-4.35-4.17Z"/>
      </g>
      <g>
        <path class="cls-1" d="m212.36,43.52c-6.65-3.82-13.71-5.73-21.18-5.73s-14.28,1.91-20.84,5.73c-6.56,3.82-11.69,8.96-15.38,15.43-3.69,6.47-5.53,13.68-5.53,21.63,0,11.77,4.08,21.71,12.24,29.82,8.16,8.11,17.99,12.16,29.51,12.16,7.69,0,14.8-1.86,21.34-5.59,6.54-3.73,11.64-8.83,15.31-15.3,3.66-6.47,5.5-13.66,5.5-21.56s-1.83-14.97-5.5-21.33c-3.66-6.36-8.82-11.44-15.48-15.26Z"/>
        <path class="cls-1" d="m0,0v283.46h283.46V0H0Zm101.28,252.81l-43.41-46.13v46.13h-10.1v-99.04h10.1v37.17l39.59-37.17h13.3l-47.57,44.44,51.27,54.6h-13.18Zm0-123.11l-43.41-46.13v46.13h-10.1V30.66h10.1v37.17l39.59-37.17h13.3l-47.57,44.44,51.27,54.6h-13.18Zm127.16,110.45c-10.08,10.1-22.38,15.15-36.89,15.15s-27.08-5.03-37.19-15.08c-10.11-10.05-15.16-22.22-15.16-36.49,0-9.52,2.3-18.34,6.9-26.46,4.6-8.12,10.88-14.49,18.83-19.09,7.95-4.6,16.55-6.9,25.81-6.9,15,0,27.55,5.01,37.66,15.01,10.11,10.01,15.16,22.33,15.16,36.96s-5.04,26.8-15.13,36.9Zm0-123.11c-10.08,10.1-22.38,15.15-36.89,15.15s-27.08-5.03-37.19-15.08c-10.11-10.05-15.16-22.22-15.16-36.49,0-9.52,2.3-18.34,6.9-26.46,4.6-8.12,10.88-14.49,18.83-19.09,7.95-4.6,16.55-6.9,25.81-6.9,15,0,27.55,5.01,37.66,15.01,10.11,10.01,15.16,22.33,15.16,36.96s-5.04,26.8-15.13,36.9Z"/>
        <path class="cls-1" d="m212.36,166.63c-6.65-3.82-13.71-5.73-21.18-5.73s-14.28,1.91-20.84,5.73c-6.56,3.82-11.69,8.96-15.38,15.43-3.69,6.47-5.53,13.68-5.53,21.63,0,11.77,4.08,21.71,12.24,29.82,8.16,8.11,17.99,12.16,29.51,12.16,7.69,0,14.8-1.86,21.34-5.59,6.54-3.73,11.64-8.83,15.31-15.3,3.66-6.47,5.5-13.66,5.5-21.56s-1.83-14.97-5.5-21.33c-3.66-6.36-8.82-11.44-15.48-15.26Z"/>
      </g>
    </g>
  </g>
</svg>